<svg width="128" height="128" fill="none" xmlns="http://www.w3.org/2000/svg"><path fill="#fff" d="M0 0h128v128H0z"/><path d="M23 29.333C23 24.18 27.145 20 32.258 20h63.484c5.113 0 9.258 4.179 9.258 9.333v73.334c0 5.154-4.145 9.333-9.258 9.333H32.258c-5.113 0-9.258-4.179-9.258-9.333V29.333z" fill="#DE510B"/><path d="M33.58 97.333H94.42V100c0 2.209-1.777 4-3.968 4H37.548c-2.192 0-3.968-1.791-3.968-4v-2.667z" fill="#913507"/><path d="M33.58 32c0-2.209 1.776-4 3.968-4H90.45c2.191 0 3.968 1.791 3.968 4v65.334c0 2.209-1.777 4-3.968 4H37.548c-2.192 0-3.968-1.791-3.968-4V32z" fill="#fff"/><path d="M48.792 19.333c1.69-1.916 3.87-2.666 5.952-2.666h4.629s.339-2.417 1.322-3.377c.984-.96 1.916-1.29 3.307-1.29 1.39 0 2.323.33 3.306 1.29.983.96 1.323 3.377 1.323 3.377h4.629c2.082 0 4.261.75 5.951 2.666 1.368 1.552 1.984 3.181 1.984 5.334v4c0 .796-.084 2.124-.661 2.688-.578.563-1.167.645-1.984.645H49.453c-.816 0-1.406-.082-1.984-.645-.577-.564-.66-1.139-.66-1.936v-4.752c0-2.153.615-3.782 1.983-5.334z" fill="#000"/><path d="M65.322 16c0 .736-.592 1.333-1.322 1.333-.73 0-1.323-.597-1.323-1.333s.592-1.333 1.323-1.333c.73 0 1.322.597 1.322 1.333z" fill="#fff"/><path d="M50.62 76.563l25.837-25.926 7.382 7.408L58.002 83.97l-7.381-7.407z" fill="#000"/><path d="M44.163 70.082l8.304-8.334 6.46 6.482-8.305 8.333-6.46-6.481z" fill="#000"/></svg>